<?xml version="1.0" encoding="UTF-8"?>
<svg width="44px" height="44px" viewBox="0 0 44 44" version="1.1" xmlns="http://www.w3.org/2000/svg" xmlns:xlink="http://www.w3.org/1999/xlink">
    <title>LxHTML</title>
    <defs>
        <linearGradient x1="50%" y1="0%" x2="50%" y2="100%" id="linearGradient-1">
            <stop stop-color="#E96327" offset="0%"></stop>
            <stop stop-color="#E44D26" offset="100%"></stop>
        </linearGradient>
    </defs>
    <g id="LxHTML" stroke="none" stroke-width="1" fill="none" fill-rule="evenodd">
        <path d="M5.44,40 L2.96,11.4 L41.04,11.4 L38.54,40 L22,44 L5.44,40 Z" id="Path" fill="url(#linearGradient-1)"></path>
        <path d="M22,41.54 L35.1,38.36 L37.96,13.96 L22,13.96 L22,41.54 Z" id="Path" fill="#FF6C39"></path>
        <path d="M22,25.96 L16.5,25.96 L16.08,21.2 L22,21.2 L22,16.6 L11.02,16.6 L11.16,18.14 L12.38,32.56 L22,32.56 L22,25.96 Z" id="Path" fill="#EBEBEB"></path>
        <path d="M22,34.3 L21.96,34.32 L17.42,33.1 L17.08,29.34 L12.44,29.34 L13.1,36.76 L21.96,39.2 L22,39.18 L22,34.3 Z" id="Path" fill="#EBEBEB"></path>
        <path d="M11.28,0 L13.64,0 L13.64,2.34 L15.8,2.34 L15.8,0 L18.16,0 L18.16,7.08 L15.8,7.08 L15.8,4.72 L13.64,4.72 L13.64,7.08 L11.28,7.08 L11.28,0 Z" id="Path" fill="#000000"></path>
        <path d="M23.7,2.36 L21.56,2.36 L21.56,0 L28.18,0 L28.18,2.36 L26.06,2.36 L26.06,7.08 L23.7,7.08 L23.7,2.36 Z" id="Path" fill="#000000"></path>
        <path d="M22,25.96 L22,21.2 L27.42,21.2 L26.88,25.96 L22,25.96 Z" id="Path" fill="white"></path>
        <path d="M22,16.6 L22,21.2 L32.86,21.2 L32.96,20.12 L33.24,16.6 L22,16.6 Z" id="Path" fill="white"></path>
        <path d="M22,32.56 L22,34.3 L22.04,34.32 L26.56,33.1 L26.9,29.34 L31.54,29.34 L30.88,36.76 L22.04,39.2 L22,39.18 L22,32.56 Z" id="Path" fill="white"></path>
        <text x="8" y="9" font-family="Arial" font-size="7" font-weight="bold" fill="#444444">Lx</text>
    </g>
</svg> 